<svg xmlns="http://www.w3.org/2000/svg" viewBox="0 0 230 40" width="230" height="40">
	<style>
		tspan { white-space:pre }
	</style>
	<path id="AntonyRaj " fill="#000000" d="M66.43 20.54L63.2 11.84L59.99 20.54L66.43 20.54ZM55.19 27L61.87 9.5L64.55 9.5L71.22 27L68.76 27L67.16 22.51L59.28 22.51L57.68 27L55.19 27ZM84.59 19.08L84.59 27L82.43 27L82.43 19.15Q82.43 17.29 81.71 16.36Q80.98 15.43 79.53 15.43Q77.78 15.43 76.77 16.55Q75.77 17.66 75.77 19.58L75.77 27L73.6 27L73.6 13.88L75.77 13.88L75.77 15.91Q76.54 14.73 77.58 14.14Q78.64 13.56 80.01 13.56Q82.27 13.56 83.43 14.96Q84.59 16.36 84.59 19.08ZM88.86 10.15L91.02 10.15L91.02 13.88L95.46 13.88L95.46 15.55L91.02 15.55L91.02 22.68Q91.02 24.28 91.46 24.74Q91.9 25.2 93.25 25.2L95.46 25.2L95.46 27L93.25 27Q90.75 27 89.8 26.07Q88.86 25.14 88.86 22.68L88.86 15.55L87.27 15.55L87.27 13.88L88.86 13.88L88.86 10.15ZM103.39 15.39Q101.65 15.39 100.64 16.75Q99.64 18.09 99.64 20.45Q99.64 22.8 100.63 24.16Q101.64 25.51 103.39 25.51Q105.11 25.51 106.12 24.15Q107.13 22.79 107.13 20.45Q107.13 18.12 106.12 16.76Q105.11 15.39 103.39 15.39ZM103.39 13.56Q106.2 13.56 107.8 15.39Q109.41 17.21 109.41 20.45Q109.41 23.67 107.8 25.51Q106.2 27.34 103.39 27.34Q100.56 27.34 98.96 25.51Q97.36 23.67 97.36 20.45Q97.36 17.21 98.96 15.39Q100.56 13.56 103.39 13.56ZM123.89 19.08L123.89 27L121.74 27L121.74 19.15Q121.74 17.29 121.01 16.36Q120.29 15.43 118.83 15.43Q117.09 15.43 116.08 16.55Q115.07 17.66 115.07 19.58L115.07 27L112.9 27L112.9 13.88L115.07 13.88L115.07 15.91Q115.84 14.73 116.89 14.14Q117.94 13.56 119.31 13.56Q121.57 13.56 122.73 14.96Q123.89 16.36 123.89 19.08ZM139.42 13.88L133.66 28.22Q132.74 30.56 131.88 31.28Q131.01 31.99 129.55 31.99L127.83 31.99L127.83 30.19L129.1 30.19Q129.99 30.19 130.48 29.77Q130.97 29.34 131.57 27.77L131.96 26.79L126.65 13.88L128.93 13.88L133.04 24.14L137.14 13.88L139.42 13.88Z" />
	<path id="AntonyRaj " fill="#e9b949" d="M150.79 18.8Q151.55 19.05 152.27 19.9Q152.99 20.74 153.72 22.22L156.12 27L153.58 27L151.34 22.51Q150.47 20.75 149.65 20.18Q148.84 19.61 147.44 19.61L144.86 19.61L144.86 27L142.49 27L142.49 9.5L147.84 9.5Q150.84 9.5 152.31 10.76Q153.79 12.01 153.79 14.54Q153.79 16.2 153.02 17.29Q152.25 18.38 150.79 18.8ZM147.84 11.45L144.86 11.45L144.86 17.66L147.84 17.66Q149.55 17.66 150.41 16.88Q151.29 16.08 151.29 14.54Q151.29 13.01 150.41 12.23Q149.55 11.45 147.84 11.45ZM166.66 20.4L164.51 20.4Q161.9 20.4 160.89 21Q159.88 21.6 159.88 23.04Q159.88 24.19 160.63 24.87Q161.39 25.54 162.7 25.54Q164.49 25.54 165.57 24.27Q166.66 22.99 166.66 20.88L166.66 20.4ZM168.81 19.51L168.81 27L166.66 27L166.66 25.01Q165.92 26.2 164.82 26.78Q163.71 27.34 162.12 27.34Q160.11 27.34 158.91 26.21Q157.73 25.08 157.73 23.18Q157.73 20.96 159.2 19.84Q160.69 18.71 163.63 18.71L166.66 18.71L166.66 18.5Q166.66 17.02 165.67 16.21Q164.7 15.39 162.93 15.39Q161.8 15.39 160.74 15.66Q159.67 15.93 158.69 16.46L158.69 14.47Q159.87 14.02 160.98 13.79Q162.1 13.56 163.15 13.56Q166 13.56 167.41 15.04Q168.81 16.51 168.81 19.51ZM173.25 27.23L173.25 13.88L175.41 13.88L175.41 27.23Q175.41 29.74 174.45 30.87Q173.5 31.99 171.38 31.99L170.56 31.99L170.56 30.16L171.13 30.16Q172.36 30.16 172.81 29.6Q173.25 29.03 173.25 27.23ZM173.25 11.5L173.25 8.77L175.41 8.77L175.41 11.5L173.25 11.5Z" />
</svg>